<mxfile host="app.diagrams.net" modified="2022-04-25T13:10:38.339Z" agent="5.0 (Windows NT 10.0; Win64; x64) AppleWebKit/537.36 (KHTML, like Gecko) Chrome/100.0.4896.127 Safari/537.36" etag="H_zKjfNlp52hgvyTwDxg" version="17.4.6" type="github">
  <diagram id="F0HLzhMNksUFg3vDpPqh" name="Page-1">
    <mxGraphModel dx="1821" dy="1056" grid="1" gridSize="10" guides="1" tooltips="1" connect="1" arrows="1" fold="1" page="1" pageScale="1" pageWidth="850" pageHeight="1100" math="1" shadow="0">
      <root>
        <mxCell id="0" />
        <mxCell id="1" parent="0" />
        <mxCell id="Ki2fdsFCAg6i2caEOm3m-1" value="&lt;font style=&quot;font-size: 40px&quot; color=&quot;#ff0000&quot;&gt;&quot;les(i)a&quot;&lt;/font&gt;" style="text;html=1;align=center;verticalAlign=middle;resizable=0;points=[];autosize=1;strokeColor=none;fillColor=none;" vertex="1" parent="1">
          <mxGeometry x="140" y="130" width="150" height="30" as="geometry" />
        </mxCell>
        <mxCell id="Ki2fdsFCAg6i2caEOm3m-2" value="&#39;a-&#39;" style="text;html=1;align=center;verticalAlign=middle;resizable=0;points=[];autosize=1;strokeColor=none;fillColor=none;fontSize=40;fontColor=#FF0000;" vertex="1" parent="1">
          <mxGeometry x="350" y="120" width="70" height="50" as="geometry" />
        </mxCell>
        <mxCell id="Ki2fdsFCAg6i2caEOm3m-3" value="&lt;span style=&quot;font-size: 60px&quot;&gt;LEASH - less&lt;/span&gt;" style="text;html=1;align=center;verticalAlign=middle;resizable=0;points=[];autosize=1;strokeColor=none;fillColor=none;fontSize=40;fontColor=#FF0000;" vertex="1" parent="1">
          <mxGeometry x="90" y="200" width="370" height="60" as="geometry" />
        </mxCell>
        <mxCell id="Ki2fdsFCAg6i2caEOm3m-4" value="" style="endArrow=none;dashed=1;html=1;rounded=0;fontSize=60;fontColor=#FF0000;strokeColor=#FF0000;strokeWidth=2;" edge="1" parent="1">
          <mxGeometry width="50" height="50" relative="1" as="geometry">
            <mxPoint x="378.5" y="219" as="sourcePoint" />
            <mxPoint x="378.5" y="159" as="targetPoint" />
          </mxGeometry>
        </mxCell>
        <mxCell id="Ki2fdsFCAg6i2caEOm3m-5" value="" style="endArrow=none;dashed=1;html=1;rounded=0;fontSize=60;fontColor=#FF0000;strokeColor=#FF0000;strokeWidth=2;" edge="1" parent="1">
          <mxGeometry width="50" height="50" relative="1" as="geometry">
            <mxPoint x="400" y="340" as="sourcePoint" />
            <mxPoint x="400" y="250" as="targetPoint" />
          </mxGeometry>
        </mxCell>
        <mxCell id="Ki2fdsFCAg6i2caEOm3m-6" value="&lt;font style=&quot;font-size: 40px&quot;&gt;never HAD&lt;br&gt;&lt;br&gt;&lt;/font&gt;" style="text;html=1;align=center;verticalAlign=middle;resizable=0;points=[];autosize=1;strokeColor=none;fillColor=none;fontSize=60;fontColor=#FF0000;" vertex="1" parent="1">
          <mxGeometry x="350" y="310" width="210" height="160" as="geometry" />
        </mxCell>
        <mxCell id="Ki2fdsFCAg6i2caEOm3m-7" value="LEASH" style="text;html=1;align=center;verticalAlign=middle;resizable=0;points=[];autosize=1;strokeColor=none;fillColor=none;fontSize=40;fontColor=#FF0000;" vertex="1" parent="1">
          <mxGeometry x="380" y="380" width="150" height="50" as="geometry" />
        </mxCell>
        <mxCell id="Ki2fdsFCAg6i2caEOm3m-8" value="$$\delta$$" style="text;html=1;align=center;verticalAlign=middle;resizable=0;points=[];autosize=1;strokeColor=none;fillColor=none;fontSize=40;fontColor=#FF0000;" vertex="1" parent="1">
          <mxGeometry x="-100" y="205" width="200" height="50" as="geometry" />
        </mxCell>
        <mxCell id="Ki2fdsFCAg6i2caEOm3m-9" value="$$\delta$$" style="text;html=1;align=center;verticalAlign=middle;resizable=0;points=[];autosize=1;strokeColor=none;fillColor=none;fontSize=40;fontColor=#FF0000;" vertex="1" parent="1">
          <mxGeometry x="-110" y="625" width="200" height="50" as="geometry" />
        </mxCell>
        <mxCell id="Ki2fdsFCAg6i2caEOm3m-10" value="&lt;span style=&quot;font-size: 60px&quot;&gt;UN-LEASHED&lt;/span&gt;" style="text;html=1;align=center;verticalAlign=middle;resizable=0;points=[];autosize=1;strokeColor=none;fillColor=none;fontSize=40;fontColor=#FF0000;" vertex="1" parent="1">
          <mxGeometry x="85" y="620" width="400" height="60" as="geometry" />
        </mxCell>
        <mxCell id="Ki2fdsFCAg6i2caEOm3m-11" value="&lt;font style=&quot;font-size: 40px&quot;&gt;had its customary&lt;br&gt;&lt;/font&gt;" style="text;html=1;align=center;verticalAlign=middle;resizable=0;points=[];autosize=1;strokeColor=none;fillColor=none;fontSize=60;fontColor=#FF0000;" vertex="1" parent="1">
          <mxGeometry x="200" y="740" width="330" height="80" as="geometry" />
        </mxCell>
        <mxCell id="Ki2fdsFCAg6i2caEOm3m-12" value="leash REMOVED" style="text;html=1;align=center;verticalAlign=middle;resizable=0;points=[];autosize=1;strokeColor=none;fillColor=none;fontSize=40;fontColor=#FF0000;" vertex="1" parent="1">
          <mxGeometry x="210" y="810" width="320" height="50" as="geometry" />
        </mxCell>
        <mxCell id="Ki2fdsFCAg6i2caEOm3m-13" value="" style="endArrow=classic;html=1;rounded=0;fontSize=40;fontColor=#FF0000;strokeColor=#FF0000;strokeWidth=2;exitX=-0.003;exitY=0.625;exitDx=0;exitDy=0;exitPerimeter=0;entryX=0.077;entryY=1.024;entryDx=0;entryDy=0;entryPerimeter=0;dashed=1;" edge="1" parent="1" source="Ki2fdsFCAg6i2caEOm3m-11" target="Ki2fdsFCAg6i2caEOm3m-10">
          <mxGeometry width="50" height="50" relative="1" as="geometry">
            <mxPoint x="240" y="650" as="sourcePoint" />
            <mxPoint x="290" y="600" as="targetPoint" />
            <Array as="points">
              <mxPoint x="116" y="790" />
            </Array>
          </mxGeometry>
        </mxCell>
        <mxCell id="Ki2fdsFCAg6i2caEOm3m-15" value="" style="endArrow=none;dashed=1;html=1;rounded=0;fontSize=40;fontColor=#FF0000;strokeColor=#FF0000;strokeWidth=2;entryX=0.45;entryY=0.7;entryDx=0;entryDy=0;entryPerimeter=0;" edge="1" parent="1">
          <mxGeometry width="50" height="50" relative="1" as="geometry">
            <mxPoint x="-4" y="627" as="sourcePoint" />
            <mxPoint x="-4" y="242" as="targetPoint" />
            <Array as="points">
              <mxPoint x="-4" y="442" />
            </Array>
          </mxGeometry>
        </mxCell>
        <mxCell id="Ki2fdsFCAg6i2caEOm3m-16" value="" style="endArrow=none;dashed=1;html=1;fontSize=40;fontColor=#FF0000;strokeColor=#FF0000;strokeWidth=2;curved=1;" edge="1" parent="1">
          <mxGeometry width="50" height="50" relative="1" as="geometry">
            <mxPoint x="-1.25" y="205" as="sourcePoint" />
            <mxPoint x="505" y="170" as="targetPoint" />
            <Array as="points">
              <mxPoint y="180" />
              <mxPoint x="40" y="170" />
              <mxPoint x="250" y="170" />
            </Array>
          </mxGeometry>
        </mxCell>
        <mxCell id="Ki2fdsFCAg6i2caEOm3m-17" value="" style="endArrow=none;html=1;fontSize=40;fontColor=#FF0000;strokeColor=#FF0000;strokeWidth=2;rounded=0;" edge="1" parent="1">
          <mxGeometry width="50" height="50" relative="1" as="geometry">
            <mxPoint y="340" as="sourcePoint" />
            <mxPoint x="310" y="340" as="targetPoint" />
          </mxGeometry>
        </mxCell>
        <mxCell id="Ki2fdsFCAg6i2caEOm3m-18" value="" style="endArrow=none;html=1;rounded=0;fontSize=40;fontColor=#FF0000;strokeColor=#FF0000;strokeWidth=2;" edge="1" parent="1">
          <mxGeometry width="50" height="50" relative="1" as="geometry">
            <mxPoint x="10" y="920" as="sourcePoint" />
            <mxPoint x="580" y="920" as="targetPoint" />
          </mxGeometry>
        </mxCell>
        <mxCell id="Ki2fdsFCAg6i2caEOm3m-19" value="" style="endArrow=none;html=1;rounded=0;fontSize=40;fontColor=#FF0000;strokeColor=#FF0000;strokeWidth=2;" edge="1" parent="1">
          <mxGeometry width="50" height="50" relative="1" as="geometry">
            <mxPoint x="9.999999999999773" y="939.9999999999998" as="sourcePoint" />
            <mxPoint x="580" y="939.9999999999998" as="targetPoint" />
          </mxGeometry>
        </mxCell>
      </root>
    </mxGraphModel>
  </diagram>
</mxfile>
